<svg width="430" height="383" viewBox="0 0 430 383" fill="none" xmlns="http://www.w3.org/2000/svg">
<path d="M0.125437 204.651C0.125437 204.651 2.46543 277.321 63.1254 325.761C123.785 374.201 207.865 377.671 275.925 382.281C343.985 386.891 396.255 348.351 404.125 290.111C411.995 231.871 360.065 214.781 331.795 148.471C303.525 82.1608 306.065 60.3908 246.395 19.6208C186.725 -21.1492 93.2954 3.88083 44.3354 73.7408C-4.62457 143.601 0.125437 204.651 0.125437 204.651Z" fill="#92E3A9"/>
<path opacity="0.7" d="M0.125437 204.651C0.125437 204.651 2.46543 277.321 63.1254 325.761C123.785 374.201 207.865 377.671 275.925 382.281C343.985 386.891 396.255 348.351 404.125 290.111C411.995 231.871 360.065 214.781 331.795 148.471C303.525 82.1608 306.065 60.3908 246.395 19.6208C186.725 -21.1492 93.2954 3.88083 44.3354 73.7408C-4.62457 143.601 0.125437 204.651 0.125437 204.651Z" fill="white"/>
<path d="M0.125437 204.651C0.125437 204.651 2.46543 277.321 63.1254 325.761C123.785 374.201 207.865 377.671 275.925 382.281C343.985 386.891 396.255 348.351 404.125 290.111C411.995 231.871 360.065 214.781 331.795 148.471C303.525 82.1608 306.065 60.3908 246.395 19.6208C186.725 -21.1492 93.2954 3.88083 44.3354 73.7408C-4.62457 143.601 0.125437 204.651 0.125437 204.651Z" fill="#92E3A9"/>
<path opacity="0.7" d="M0.125437 204.651C0.125437 204.651 2.46543 277.321 63.1254 325.761C123.785 374.201 207.865 377.671 275.925 382.281C343.985 386.891 396.255 348.351 404.125 290.111C411.995 231.871 360.065 214.781 331.795 148.471C303.525 82.1608 306.065 60.3908 246.395 19.6208C186.725 -21.1492 93.2954 3.88083 44.3354 73.7408C-4.62457 143.601 0.125437 204.651 0.125437 204.651Z" fill="white"/>
<path d="M27.7354 322.001H18.5554" stroke="#263238" stroke-width="1.1133" stroke-miterlimit="10"/>
<path d="M399.575 322.001H42.2554" stroke="#263238" stroke-width="1.1133" stroke-miterlimit="10"/>
<path d="M27.7354 322.001H18.5554" stroke="#263238" stroke-width="1.1133" stroke-miterlimit="10"/>
<path d="M399.575 322.001H42.2554" stroke="#263238" stroke-width="1.1133" stroke-miterlimit="10"/>
<path d="M265.135 360.381C281.919 360.381 295.525 356.638 295.525 352.021C295.525 347.404 281.919 343.661 265.135 343.661C248.352 343.661 234.745 347.404 234.745 352.021C234.745 356.638 248.352 360.381 265.135 360.381Z" fill="#263238"/>
<path d="M108.065 371.011C76.4354 371.011 71.7654 366.441 71.3054 362.751C71.201 361.982 71.2767 361.2 71.5266 360.466C71.7765 359.732 72.1938 359.066 72.7454 358.521C81.2654 349.581 130.365 353.361 198.305 358.591C207.785 359.321 217.585 360.071 227.635 360.821C296.285 365.921 323.925 365.261 329.635 358.361C330.795 356.951 331.035 355.191 330.395 352.811C327.675 342.861 291.315 342.811 277.545 343.591C277.23 343.607 276.921 343.499 276.686 343.289C276.45 343.08 276.306 342.786 276.285 342.471C276.276 342.315 276.298 342.159 276.349 342.011C276.4 341.864 276.48 341.728 276.584 341.612C276.689 341.496 276.815 341.401 276.956 341.334C277.097 341.267 277.25 341.228 277.405 341.221C282.675 340.911 328.975 338.581 332.685 352.221C333.535 355.361 333.145 357.871 331.465 359.911C325.055 367.691 298.815 368.521 227.465 363.221C217.405 362.471 207.605 361.721 198.125 360.991C133.365 355.991 82.2054 352.061 74.4654 360.191C74.1594 360.481 73.9272 360.841 73.788 361.239C73.6489 361.637 73.6068 362.063 73.6654 362.481C73.9554 364.841 79.6654 370.121 125.665 368.281C151.395 367.281 177.245 364.451 177.505 364.421C177.807 364.409 178.101 364.511 178.329 364.708C178.558 364.904 178.703 365.18 178.736 365.48C178.769 365.779 178.687 366.08 178.507 366.321C178.327 366.563 178.062 366.727 177.765 366.781C177.505 366.781 151.575 369.621 125.765 370.651C119.125 370.891 113.245 371.011 108.065 371.011Z" fill="white" stroke="#263238" stroke-width="1.1133" stroke-miterlimit="10"/>
<path d="M253.835 359.361C273.613 359.361 289.645 343.328 289.645 323.551C289.645 303.773 273.613 287.741 253.835 287.741C234.058 287.741 218.025 303.773 218.025 323.551C218.025 343.328 234.058 359.361 253.835 359.361Z" fill="white"/>
<path d="M253.835 359.361C260.352 359.365 266.746 357.59 272.329 354.228C277.911 350.866 282.47 346.044 285.514 340.282C288.558 334.519 289.971 328.036 289.601 321.529C289.231 315.023 287.092 308.741 283.415 303.361C283.025 318.961 274.415 341.991 229.635 349.911C236.227 355.991 244.868 359.365 253.835 359.361V359.361Z" fill="#92E3A9"/>
<path opacity="0.3" d="M253.835 359.361C260.352 359.365 266.746 357.59 272.329 354.228C277.911 350.866 282.47 346.044 285.514 340.282C288.558 334.519 289.971 328.036 289.601 321.529C289.231 315.023 287.092 308.741 283.415 303.361C283.025 318.961 274.415 341.991 229.635 349.911C236.227 355.991 244.868 359.365 253.835 359.361V359.361Z" fill="white"/>
<path d="M271.455 337.591C265.07 331.378 257.315 326.751 248.815 324.081C257.315 326.751 265.07 331.378 271.455 337.591H273.355C277.57 333.413 281.2 328.683 284.145 323.531C267.375 305.811 251.065 307.621 251.065 307.621C251.065 307.621 267.425 305.811 284.195 323.551C285.115 321.901 285.885 320.351 286.515 318.921C279.535 309.141 267.515 302.471 261.065 301.471L259.565 301.111C257.254 300.691 254.888 300.657 252.565 301.011C254.888 300.657 257.254 300.691 259.565 301.111L263.835 289.111C261.818 288.534 259.753 288.136 257.665 287.921C254.895 292.391 247.765 306.671 247.765 335.001C247.765 306.671 254.895 292.391 257.665 287.921C256.465 287.811 255.265 287.741 254.035 287.741C252.682 287.745 251.33 287.825 249.985 287.981C245.765 294.361 237.695 309.431 237.155 332.051C245.525 335.101 256.725 337.381 271.455 337.591ZM279.545 330.301C265.285 316.401 249.545 315.671 249.545 315.671C249.545 315.671 265.285 316.401 279.545 330.301V330.301Z" stroke="#263238" stroke-width="1.1133" stroke-linecap="round" stroke-linejoin="round"/>
<path d="M237.115 332.111C237.655 309.491 245.725 294.421 249.945 288.041C246.644 288.411 243.409 289.239 240.335 290.501C232.757 301.619 228.475 314.654 227.985 328.101C230.922 329.669 233.974 331.009 237.115 332.111Z" stroke="#263238" stroke-width="1.1133" stroke-linecap="round" stroke-linejoin="round"/>
<path d="M240.335 290.471C234.151 293.02 228.803 297.248 224.894 302.676C220.986 308.105 218.672 314.517 218.215 321.191C221.16 323.898 224.444 326.211 227.985 328.071C228.475 314.624 232.757 301.589 240.335 290.471V290.471Z" stroke="#263238" stroke-width="1.1133" stroke-linecap="round" stroke-linejoin="round"/>
<path d="M286.465 318.921C287.245 317.199 287.913 315.428 288.465 313.621C286.97 308.521 284.365 303.815 280.835 299.841L278.065 309.081L280.785 299.841C278.577 297.363 276.036 295.203 273.235 293.421L270.185 304.831L273.255 293.471C270.327 291.598 267.14 290.166 263.795 289.221L259.525 301.221C266.065 302.161 276.175 306.011 286.465 318.921Z" stroke="#263238" stroke-width="1.1133" stroke-linecap="round" stroke-linejoin="round"/>
<path d="M289.835 325.241C289.835 324.721 289.835 324.241 289.835 323.681C289.835 320.276 289.35 316.889 288.395 313.621C287.843 315.428 287.175 317.199 286.395 318.921C285.966 319.978 285.458 321 284.875 321.981C284.935 322.041 284.015 323.491 284.075 323.551C284.135 323.611 283.075 325.351 283.075 325.291C280.695 329.521 273.515 337.621 273.635 337.621C273.515 337.621 269.755 341.031 267.705 342.751C263.956 345.857 259.982 348.681 255.815 351.201H256.075H255.815C251.718 353.677 247.481 355.914 243.125 357.901C246.623 359.001 250.269 359.561 253.935 359.561C254.545 359.561 255.145 359.561 255.735 359.561C263.065 355.571 274.715 346.471 289.835 325.241Z" stroke="#263238" stroke-width="1.1133" stroke-linecap="round" stroke-linejoin="round"/>
<path d="M289.835 325.241C274.715 346.471 263.065 355.571 255.795 359.471C264.711 359.022 273.138 355.266 279.433 348.936C285.727 342.607 289.436 334.158 289.835 325.241V325.241Z" stroke="#263238" stroke-width="1.1133" stroke-linecap="round" stroke-linejoin="round"/>
<path d="M225.955 346.041C230.393 351.619 236.391 355.748 243.185 357.901C247.541 355.914 251.778 353.677 255.875 351.201C247.335 352.781 233.975 348.861 225.955 346.041Z" stroke="#263238" stroke-width="1.1133" stroke-linecap="round" stroke-linejoin="round"/>
<path d="M255.875 351.201C260.042 348.681 264.016 345.857 267.765 342.751C241.975 345.391 226.065 337.401 219.305 332.861C220.581 337.669 222.846 342.158 225.955 346.041C233.975 348.861 247.335 352.781 255.875 351.201Z" stroke="#263238" stroke-width="1.1133" stroke-linecap="round" stroke-linejoin="round"/>
<path d="M267.765 342.751C269.815 341.031 271.665 339.311 273.355 337.611H271.455C271.595 337.741 271.735 337.871 271.865 338.011C271.735 337.871 271.595 337.741 271.455 337.611C256.725 337.401 245.525 335.121 237.115 332.131C224.825 327.871 220.395 323.291 218.215 321.241C218.155 322.061 218.115 322.871 218.115 323.701C218.116 326.799 218.516 329.885 219.305 332.881C226.065 337.401 241.975 345.391 267.765 342.751Z" stroke="#263238" stroke-width="1.1133" stroke-linecap="round" stroke-linejoin="round"/>
<path d="M253.835 359.361C273.613 359.361 289.645 343.328 289.645 323.551C289.645 303.773 273.613 287.741 253.835 287.741C234.058 287.741 218.025 303.773 218.025 323.551C218.025 343.328 234.058 359.361 253.835 359.361Z" stroke="#263238" stroke-width="1.1133" stroke-linecap="round" stroke-linejoin="round"/>
<path d="M265.135 360.381C281.919 360.381 295.525 356.638 295.525 352.021C295.525 347.404 281.919 343.661 265.135 343.661C248.352 343.661 234.745 347.404 234.745 352.021C234.745 356.638 248.352 360.381 265.135 360.381Z" fill="#263238"/>
<path d="M108.065 371.011C76.4354 371.011 71.7654 366.441 71.3054 362.751C71.201 361.982 71.2767 361.2 71.5266 360.466C71.7765 359.732 72.1938 359.066 72.7454 358.521C81.2654 349.581 130.365 353.361 198.305 358.591C207.785 359.321 217.585 360.071 227.635 360.821C296.285 365.921 323.925 365.261 329.635 358.361C330.795 356.951 331.035 355.191 330.395 352.811C327.675 342.861 291.315 342.811 277.545 343.591C277.23 343.607 276.921 343.499 276.686 343.289C276.45 343.08 276.306 342.786 276.285 342.471C276.276 342.315 276.298 342.159 276.349 342.011C276.4 341.864 276.48 341.728 276.584 341.612C276.689 341.496 276.815 341.401 276.956 341.334C277.097 341.267 277.25 341.228 277.405 341.221C282.675 340.911 328.975 338.581 332.685 352.221C333.535 355.361 333.145 357.871 331.465 359.911C325.055 367.691 298.815 368.521 227.465 363.221C217.405 362.471 207.605 361.721 198.125 360.991C133.365 355.991 82.2054 352.061 74.4654 360.191C74.1594 360.481 73.9272 360.841 73.788 361.239C73.6489 361.637 73.6068 362.063 73.6654 362.481C73.9554 364.841 79.6654 370.121 125.665 368.281C151.395 367.281 177.245 364.451 177.505 364.421C177.807 364.409 178.101 364.511 178.329 364.708C178.558 364.904 178.703 365.18 178.736 365.48C178.769 365.779 178.687 366.08 178.507 366.321C178.327 366.563 178.062 366.727 177.765 366.781C177.505 366.781 151.575 369.621 125.765 370.651C119.125 370.891 113.245 371.011 108.065 371.011Z" fill="white" stroke="#263238" stroke-width="1.1133" stroke-miterlimit="10"/>
<path d="M253.835 359.361C273.613 359.361 289.645 343.328 289.645 323.551C289.645 303.773 273.613 287.741 253.835 287.741C234.058 287.741 218.025 303.773 218.025 323.551C218.025 343.328 234.058 359.361 253.835 359.361Z" fill="white"/>
<path d="M253.835 359.361C260.352 359.365 266.746 357.59 272.329 354.228C277.911 350.866 282.47 346.044 285.514 340.282C288.558 334.519 289.971 328.036 289.601 321.529C289.231 315.023 287.092 308.741 283.415 303.361C283.025 318.961 274.415 341.991 229.635 349.911C236.227 355.991 244.868 359.365 253.835 359.361V359.361Z" fill="#92E3A9"/>
<path opacity="0.3" d="M253.835 359.361C260.352 359.365 266.746 357.59 272.329 354.228C277.911 350.866 282.47 346.044 285.514 340.282C288.558 334.519 289.971 328.036 289.601 321.529C289.231 315.023 287.092 308.741 283.415 303.361C283.025 318.961 274.415 341.991 229.635 349.911C236.227 355.991 244.868 359.365 253.835 359.361V359.361Z" fill="white"/>
<path d="M271.455 337.591C265.07 331.378 257.315 326.751 248.815 324.081C257.315 326.751 265.07 331.378 271.455 337.591H273.355C277.57 333.413 281.2 328.683 284.145 323.531C267.375 305.811 251.065 307.621 251.065 307.621C251.065 307.621 267.425 305.811 284.195 323.551C285.115 321.901 285.885 320.351 286.515 318.921C279.535 309.141 267.515 302.471 261.065 301.471L259.565 301.111C257.254 300.691 254.888 300.657 252.565 301.011C254.888 300.657 257.254 300.691 259.565 301.111L263.835 289.111C261.818 288.534 259.753 288.136 257.665 287.921C254.895 292.391 247.765 306.671 247.765 335.001C247.765 306.671 254.895 292.391 257.665 287.921C256.465 287.811 255.265 287.741 254.035 287.741C252.682 287.745 251.33 287.825 249.985 287.981C245.765 294.361 237.695 309.431 237.155 332.051C245.525 335.101 256.725 337.381 271.455 337.591ZM279.545 330.301C265.285 316.401 249.545 315.671 249.545 315.671C249.545 315.671 265.285 316.401 279.545 330.301V330.301Z" stroke="#263238" stroke-width="1.1133" stroke-linecap="round" stroke-linejoin="round"/>
<path d="M237.115 332.111C237.655 309.491 245.725 294.421 249.945 288.041C246.644 288.411 243.409 289.239 240.335 290.501C232.757 301.619 228.475 314.654 227.985 328.101C230.922 329.669 233.974 331.009 237.115 332.111Z" stroke="#263238" stroke-width="1.1133" stroke-linecap="round" stroke-linejoin="round"/>
<path d="M240.335 290.471C234.151 293.02 228.803 297.248 224.894 302.676C220.986 308.105 218.672 314.517 218.215 321.191C221.16 323.898 224.444 326.211 227.985 328.071C228.475 314.624 232.757 301.589 240.335 290.471V290.471Z" stroke="#263238" stroke-width="1.1133" stroke-linecap="round" stroke-linejoin="round"/>
<path d="M286.465 318.921C287.245 317.199 287.913 315.428 288.465 313.621C286.97 308.521 284.365 303.815 280.835 299.841L278.065 309.081L280.785 299.841C278.577 297.363 276.036 295.203 273.235 293.421L270.185 304.831L273.255 293.471C270.327 291.598 267.14 290.166 263.795 289.221L259.525 301.221C266.065 302.161 276.175 306.011 286.465 318.921Z" stroke="#263238" stroke-width="1.1133" stroke-linecap="round" stroke-linejoin="round"/>
<path d="M289.835 325.241C289.835 324.721 289.835 324.241 289.835 323.681C289.835 320.276 289.35 316.889 288.395 313.621C287.843 315.428 287.175 317.199 286.395 318.921C285.966 319.978 285.458 321 284.875 321.981C284.935 322.041 284.015 323.491 284.075 323.551C284.135 323.611 283.075 325.351 283.075 325.291C280.695 329.521 273.515 337.621 273.635 337.621C273.515 337.621 269.755 341.031 267.705 342.751C263.956 345.857 259.982 348.681 255.815 351.201H256.075H255.815C251.718 353.677 247.481 355.914 243.125 357.901C246.623 359.001 250.269 359.561 253.935 359.561C254.545 359.561 255.145 359.561 255.735 359.561C263.065 355.571 274.715 346.471 289.835 325.241Z" stroke="#263238" stroke-width="1.1133" stroke-linecap="round" stroke-linejoin="round"/>
<path d="M289.835 325.241C274.715 346.471 263.065 355.571 255.795 359.471C264.711 359.022 273.138 355.266 279.433 348.936C285.727 342.607 289.436 334.158 289.835 325.241V325.241Z" stroke="#263238" stroke-width="1.1133" stroke-linecap="round" stroke-linejoin="round"/>
<path d="M225.955 346.041C230.393 351.619 236.391 355.748 243.185 357.901C247.541 355.914 251.778 353.677 255.875 351.201C247.335 352.781 233.975 348.861 225.955 346.041Z" stroke="#263238" stroke-width="1.1133" stroke-linecap="round" stroke-linejoin="round"/>
<path d="M255.875 351.201C260.042 348.681 264.016 345.857 267.765 342.751C241.975 345.391 226.065 337.401 219.305 332.861C220.581 337.669 222.846 342.158 225.955 346.041C233.975 348.861 247.335 352.781 255.875 351.201Z" stroke="#263238" stroke-width="1.1133" stroke-linecap="round" stroke-linejoin="round"/>
<path d="M267.765 342.751C269.815 341.031 271.665 339.311 273.355 337.611H271.455C271.595 337.741 271.735 337.871 271.865 338.011C271.735 337.871 271.595 337.741 271.455 337.611C256.725 337.401 245.525 335.121 237.115 332.131C224.825 327.871 220.395 323.291 218.215 321.241C218.155 322.061 218.115 322.871 218.115 323.701C218.116 326.799 218.516 329.885 219.305 332.881C226.065 337.401 241.975 345.391 267.765 342.751Z" stroke="#263238" stroke-width="1.1133" stroke-linecap="round" stroke-linejoin="round"/>
<path d="M253.835 359.361C273.613 359.361 289.645 343.328 289.645 323.551C289.645 303.773 273.613 287.741 253.835 287.741C234.058 287.741 218.025 303.773 218.025 323.551C218.025 343.328 234.058 359.361 253.835 359.361Z" stroke="#263238" stroke-width="1.1133" stroke-linecap="round" stroke-linejoin="round"/>
<path d="M319.795 262.351C319.795 262.351 317.345 254.401 310.205 251.541C305.205 249.541 299.535 250.081 294.385 250.971C284.805 252.641 276.445 256.451 267.385 259.701C267.385 259.701 271.265 258.271 287.175 266.031C293.035 268.881 299.735 271.101 306.435 270.951C311.805 270.831 320.065 269.291 319.795 262.351Z" fill="#92E3A9"/>
<path d="M320.655 238.981C320.655 238.981 320.655 230.651 314.655 225.861C310.475 222.521 304.855 221.371 299.655 220.741C289.995 219.571 280.895 220.801 271.255 221.291C271.255 221.291 275.385 221.051 288.375 233.071C293.165 237.491 298.945 241.551 305.375 243.341C310.555 244.781 318.895 245.701 320.655 238.981Z" fill="#92E3A9"/>
<path d="M337.065 269.891C337.065 269.891 330.575 264.681 330.555 256.991C330.555 251.641 333.125 246.531 335.855 242.081C340.935 233.781 347.555 227.421 353.935 220.171C353.935 220.171 351.175 223.251 352.515 240.901C353.015 247.401 352.595 254.451 349.985 260.621C347.935 265.581 343.465 272.691 337.065 269.891Z" fill="#92E3A9"/>
<path d="M360.065 282.671C360.065 282.671 359.145 274.401 364.565 268.941C368.325 265.151 373.775 263.351 378.845 262.131C388.305 259.851 397.485 260.021 407.115 259.391C407.115 259.391 402.995 259.621 391.475 273.061C387.235 278.061 381.965 282.711 375.755 285.241C370.805 287.271 362.625 289.141 360.065 282.671Z" fill="#92E3A9"/>
<path d="M358.595 253.181C358.595 253.181 350.345 252.051 346.385 245.461C343.625 240.881 343.215 235.161 343.265 229.941C343.365 220.221 345.785 211.351 347.535 201.861C347.535 201.861 346.745 205.921 356.965 220.371C360.725 225.701 363.965 231.961 364.965 238.601C365.675 243.931 365.485 252.321 358.595 253.181Z" fill="#92E3A9"/>
<path d="M382.335 238.371C382.335 238.371 388.265 244.211 395.905 243.371C401.215 242.761 405.995 239.591 410.095 236.371C417.735 230.371 423.285 223.031 429.735 215.861C429.735 215.861 427.005 218.951 409.315 219.681C402.805 219.951 395.855 221.181 390.025 224.501C385.345 227.121 378.815 232.391 382.335 238.371Z" fill="#92E3A9"/>
<path d="M375.465 232.601C375.465 232.601 383.745 233.431 389.145 227.961C392.905 224.151 394.645 218.691 395.815 213.601C397.995 204.131 397.735 194.941 398.255 185.311C398.255 185.311 398.075 189.431 384.745 201.091C379.845 205.381 375.195 210.701 372.745 216.931C370.755 221.941 368.965 230.141 375.465 232.601Z" fill="#92E3A9"/>
<path d="M345.895 313.211L331.595 278.021L315.105 237.331" stroke="#263238" stroke-width="1.1133" stroke-linecap="round" stroke-linejoin="round"/>
<path d="M349.195 307.161L363.485 258.231L378.885 227.991" stroke="#263238" stroke-width="1.1133" stroke-linecap="round" stroke-linejoin="round"/>
<path d="M354.685 287.921L368.985 279.671" stroke="#263238" stroke-width="1.1133" stroke-linecap="round" stroke-linejoin="round"/>
<path d="M363.485 258.231L356.335 242.281" stroke="#263238" stroke-width="1.1133" stroke-linecap="round" stroke-linejoin="round"/>
<path d="M372.435 242.361L389.875 234.581" stroke="#263238" stroke-width="1.1133" stroke-linecap="round" stroke-linejoin="round"/>
<path d="M334.345 284.621L340.395 260.431" stroke="#263238" stroke-width="1.1133" stroke-linecap="round" stroke-linejoin="round"/>
<path d="M326.325 266.231L312.355 258.781" stroke="#263238" stroke-width="1.1133" stroke-linecap="round" stroke-linejoin="round"/>
<path d="M353.225 330.801H341.305C339.357 330.8 337.47 330.119 335.969 328.876C334.468 327.633 333.449 325.905 333.085 323.991L328.845 301.661H365.685L361.455 323.991C361.09 325.906 360.068 327.634 358.566 328.877C357.064 330.12 355.175 330.8 353.225 330.801V330.801Z" fill="#263238" stroke="#263238" stroke-width="1.1133" stroke-linecap="round" stroke-linejoin="round"/>
<path d="M319.795 262.351C319.795 262.351 317.345 254.401 310.205 251.541C305.205 249.541 299.535 250.081 294.385 250.971C284.805 252.641 276.445 256.451 267.385 259.701C267.385 259.701 271.265 258.271 287.175 266.031C293.035 268.881 299.735 271.101 306.435 270.951C311.805 270.831 320.065 269.291 319.795 262.351Z" fill="#92E3A9"/>
<path d="M320.655 238.981C320.655 238.981 320.655 230.651 314.655 225.861C310.475 222.521 304.855 221.371 299.655 220.741C289.995 219.571 280.895 220.801 271.255 221.291C271.255 221.291 275.385 221.051 288.375 233.071C293.165 237.491 298.945 241.551 305.375 243.341C310.555 244.781 318.895 245.701 320.655 238.981Z" fill="#92E3A9"/>
<path d="M337.065 269.891C337.065 269.891 330.575 264.681 330.555 256.991C330.555 251.641 333.125 246.531 335.855 242.081C340.935 233.781 347.555 227.421 353.935 220.171C353.935 220.171 351.175 223.251 352.515 240.901C353.015 247.401 352.595 254.451 349.985 260.621C347.935 265.581 343.465 272.691 337.065 269.891Z" fill="#92E3A9"/>
<path d="M360.065 282.671C360.065 282.671 359.145 274.401 364.565 268.941C368.325 265.151 373.775 263.351 378.845 262.131C388.305 259.851 397.485 260.021 407.115 259.391C407.115 259.391 402.995 259.621 391.475 273.061C387.235 278.061 381.965 282.711 375.755 285.241C370.805 287.271 362.625 289.141 360.065 282.671Z" fill="#92E3A9"/>
<path d="M358.595 253.181C358.595 253.181 350.345 252.051 346.385 245.461C343.625 240.881 343.215 235.161 343.265 229.941C343.365 220.221 345.785 211.351 347.535 201.861C347.535 201.861 346.745 205.921 356.965 220.371C360.725 225.701 363.965 231.961 364.965 238.601C365.675 243.931 365.485 252.321 358.595 253.181Z" fill="#92E3A9"/>
<path d="M382.335 238.371C382.335 238.371 388.265 244.211 395.905 243.371C401.215 242.761 405.995 239.591 410.095 236.371C417.735 230.371 423.285 223.031 429.735 215.861C429.735 215.861 427.005 218.951 409.315 219.681C402.805 219.951 395.855 221.181 390.025 224.501C385.345 227.121 378.815 232.391 382.335 238.371Z" fill="#92E3A9"/>
<path d="M375.465 232.601C375.465 232.601 383.745 233.431 389.145 227.961C392.905 224.151 394.645 218.691 395.815 213.601C397.995 204.131 397.735 194.941 398.255 185.311C398.255 185.311 398.075 189.431 384.745 201.091C379.845 205.381 375.195 210.701 372.745 216.931C370.755 221.941 368.965 230.141 375.465 232.601Z" fill="#92E3A9"/>
<path d="M345.895 313.211L331.595 278.021L315.105 237.331" stroke="#263238" stroke-width="1.1133" stroke-linecap="round" stroke-linejoin="round"/>
<path d="M349.195 307.161L363.485 258.231L378.885 227.991" stroke="#263238" stroke-width="1.1133" stroke-linecap="round" stroke-linejoin="round"/>
<path d="M354.685 287.921L368.985 279.671" stroke="#263238" stroke-width="1.1133" stroke-linecap="round" stroke-linejoin="round"/>
<path d="M363.485 258.231L356.335 242.281" stroke="#263238" stroke-width="1.1133" stroke-linecap="round" stroke-linejoin="round"/>
<path d="M372.435 242.361L389.875 234.581" stroke="#263238" stroke-width="1.1133" stroke-linecap="round" stroke-linejoin="round"/>
<path d="M334.345 284.621L340.395 260.431" stroke="#263238" stroke-width="1.1133" stroke-linecap="round" stroke-linejoin="round"/>
<path d="M326.325 266.231L312.355 258.781" stroke="#263238" stroke-width="1.1133" stroke-linecap="round" stroke-linejoin="round"/>
<path d="M353.225 330.801H341.305C339.357 330.8 337.47 330.119 335.969 328.876C334.468 327.633 333.449 325.905 333.085 323.991L328.845 301.661H365.685L361.455 323.991C361.09 325.906 360.068 327.634 358.566 328.877C357.064 330.12 355.175 330.8 353.225 330.801V330.801Z" fill="#263238" stroke="#263238" stroke-width="1.1133" stroke-linecap="round" stroke-linejoin="round"/>
<path d="M17.7254 194.671C17.7254 191.901 19.0054 189.861 21.8854 189.861C24.7654 189.861 26.0954 191.861 26.0954 194.671V204.391C26.0954 207.161 24.8154 209.201 21.8854 209.201C18.9554 209.201 17.7254 207.201 17.7254 204.391V194.671ZM18.9754 204.471C18.9754 206.541 19.7954 208.061 21.8854 208.061C23.9754 208.061 24.8854 206.541 24.8854 204.471V194.591C24.8854 192.521 24.0454 191.001 21.8854 191.001C19.7254 191.001 18.9754 192.521 18.9754 194.591V204.471Z" fill="#263238"/>
<path d="M28.0654 194.671C28.0654 191.901 29.3454 189.861 32.2254 189.861C35.1054 189.861 36.4354 191.861 36.4354 194.671V204.391C36.4354 207.161 35.1554 209.201 32.2254 209.201C29.2954 209.201 28.0654 207.201 28.0654 204.391V194.671ZM29.3154 204.471C29.3154 206.541 30.1354 208.061 32.2254 208.061C34.3154 208.061 35.2254 206.541 35.2254 204.471V194.591C35.2254 192.521 34.3854 191.001 32.2254 191.001C30.0654 191.001 29.3154 192.521 29.3154 194.591V204.471Z" fill="#263238"/>
<path d="M42.4454 190.021C45.3854 190.021 46.5254 191.871 46.5254 194.641V196.711C46.5254 199.711 45.1354 201.211 42.1254 201.211H39.7554V209.041H38.5054V190.041L42.4454 190.021ZM42.1254 200.071C44.3254 200.071 45.2754 199.071 45.2754 196.791V194.561C45.2754 192.501 44.5654 191.161 42.4454 191.161H39.7554V200.071H42.1254Z" fill="#263238"/>
<path d="M56.4154 194.611V195.021H55.2154V194.531C55.2154 192.531 54.4554 191.001 52.3954 191.001C50.3354 191.001 49.5654 192.471 49.5654 194.471C49.5654 199.081 56.4354 199.161 56.4354 204.411C56.4354 207.151 55.2454 209.161 52.3354 209.161C49.4254 209.161 48.2354 207.161 48.2354 204.411V203.411H49.4354V204.471C49.4354 206.471 50.2154 207.971 52.3054 207.971C54.3954 207.971 55.1854 206.501 55.1854 204.471C55.1854 199.901 48.3154 199.821 48.3154 194.531C48.3154 191.671 49.5654 189.831 52.3154 189.801C55.0654 189.771 56.4154 191.871 56.4154 194.611Z" fill="#263238"/>
<path d="M59.5354 206.651V209.041H58.3154V206.651H59.5354Z" fill="#263238"/>
<path d="M62.9354 206.651V209.041H61.7054V206.651H62.9354Z" fill="#263238"/>
<path d="M66.3254 206.651V209.041H65.0654V206.651H66.3254Z" fill="#263238"/>
<path d="M21.7454 217.691C24.6854 217.691 25.8254 219.531 25.8254 222.301V224.371C25.8254 227.371 24.4354 228.881 21.4254 228.881H19.0654V236.701H17.8054V217.701L21.7454 217.691ZM21.4254 227.691C23.6254 227.691 24.5754 226.691 24.5754 224.401V222.171C24.5754 220.111 23.8654 218.781 21.7454 218.781H19.0654V227.691H21.4254Z" fill="#263238"/>
<path d="M29.1654 232.471L28.2154 236.681H27.0654L31.2154 217.681H33.0654L37.3054 236.681H36.0654L35.0654 232.471H29.1654ZM29.3554 231.381H34.8954L32.0654 219.101L29.3554 231.381Z" fill="#263238"/>
<path d="M47.2854 222.331V223.741H46.0654V222.251C46.0654 220.251 45.2854 218.661 43.1854 218.661C41.0854 218.661 40.3154 220.211 40.3154 222.251V232.141C40.3154 234.141 41.0954 235.691 43.1854 235.691C45.2754 235.691 46.0654 234.171 46.0654 232.141V228.031H43.5654V226.891H47.2854V232.051C47.2854 234.801 46.0854 236.861 43.1854 236.861C40.2854 236.861 39.0854 234.801 39.0854 232.051V222.331C39.0854 219.591 40.2754 217.521 43.1854 217.521C46.0954 217.521 47.2854 219.591 47.2854 222.331Z" fill="#263238"/>
<path d="M55.8154 226.471V227.611H50.6254V235.541H56.8754V236.681H49.3754V217.681H56.8754V218.821H50.6254V226.471H55.8154Z" fill="#263238"/>
<path d="M64.2654 236.701H63.1254V217.701H64.7554L70.4554 233.701V217.701H71.5954V236.701H70.2154L64.2154 219.701L64.2654 236.701Z" fill="#263238"/>
<path d="M73.6654 222.331C73.6654 219.561 74.9354 217.521 77.8154 217.521C80.6954 217.521 82.0254 219.521 82.0254 222.331V232.051C82.0254 234.821 80.7554 236.861 77.8154 236.861C74.8754 236.861 73.6654 234.861 73.6654 232.051V222.331ZM74.9154 232.141C74.9154 234.201 75.7254 235.721 77.8154 235.721C79.9054 235.721 80.8154 234.201 80.8154 232.141V222.251C80.8154 220.181 79.9754 218.661 77.8154 218.661C75.6554 218.661 74.9154 220.181 74.9154 222.251V232.141Z" fill="#263238"/>
<path d="M87.2954 236.701V218.831H83.4454V217.691H92.4454V218.831H88.5554V236.701H87.2954Z" fill="#263238"/>
<path d="M104.355 226.951V228.091H99.4454V236.701H98.1954V217.701H105.415V218.841H99.4154V226.961L104.355 226.951Z" fill="#263238"/>
<path d="M107.235 222.331C107.235 219.561 108.515 217.521 111.395 217.521C114.275 217.521 115.605 219.521 115.605 222.331V232.051C115.605 234.821 114.325 236.861 111.395 236.861C108.465 236.861 107.235 234.861 107.235 232.051V222.331ZM108.485 232.141C108.485 234.201 109.305 235.721 111.395 235.721C113.485 235.721 114.395 234.201 114.395 232.141V222.251C114.395 220.181 113.555 218.661 111.395 218.661C109.235 218.661 108.485 220.181 108.485 222.251V232.141Z" fill="#263238"/>
<path d="M118.865 232.111C118.865 234.111 119.625 235.721 121.715 235.721C123.805 235.721 124.565 234.151 124.565 232.111V217.691H125.735V232.051C125.735 234.771 124.595 236.861 121.735 236.861C118.875 236.861 117.655 234.771 117.655 232.051V217.691H118.905L118.865 232.111Z" fill="#263238"/>
<path d="M129.065 236.701H127.925V217.701H129.555L135.255 233.701V217.701H136.395V236.701H135.015L129.065 219.701V236.701Z" fill="#263238"/>
<path d="M142.685 217.691C145.625 217.691 146.895 219.611 146.895 222.411V231.971C146.895 234.771 145.625 236.701 142.685 236.701H138.505V217.701L142.685 217.691ZM142.685 235.561C144.805 235.561 145.685 234.121 145.685 232.031V222.361C145.685 220.271 144.795 218.831 142.685 218.831H139.775V235.561H142.685Z" fill="#263238"/>
<path d="M17.7254 194.671C17.7254 191.901 19.0054 189.861 21.8854 189.861C24.7654 189.861 26.0954 191.861 26.0954 194.671V204.391C26.0954 207.161 24.8154 209.201 21.8854 209.201C18.9554 209.201 17.7254 207.201 17.7254 204.391V194.671ZM18.9754 204.471C18.9754 206.541 19.7954 208.061 21.8854 208.061C23.9754 208.061 24.8854 206.541 24.8854 204.471V194.591C24.8854 192.521 24.0454 191.001 21.8854 191.001C19.7254 191.001 18.9754 192.521 18.9754 194.591V204.471Z" fill="#263238"/>
<path d="M28.0654 194.671C28.0654 191.901 29.3454 189.861 32.2254 189.861C35.1054 189.861 36.4354 191.861 36.4354 194.671V204.391C36.4354 207.161 35.1554 209.201 32.2254 209.201C29.2954 209.201 28.0654 207.201 28.0654 204.391V194.671ZM29.3154 204.471C29.3154 206.541 30.1354 208.061 32.2254 208.061C34.3154 208.061 35.2254 206.541 35.2254 204.471V194.591C35.2254 192.521 34.3854 191.001 32.2254 191.001C30.0654 191.001 29.3154 192.521 29.3154 194.591V204.471Z" fill="#263238"/>
<path d="M42.4454 190.021C45.3854 190.021 46.5254 191.871 46.5254 194.641V196.711C46.5254 199.711 45.1354 201.211 42.1254 201.211H39.7554V209.041H38.5054V190.041L42.4454 190.021ZM42.1254 200.071C44.3254 200.071 45.2754 199.071 45.2754 196.791V194.561C45.2754 192.501 44.5654 191.161 42.4454 191.161H39.7554V200.071H42.1254Z" fill="#263238"/>
<path d="M56.4154 194.611V195.021H55.2154V194.531C55.2154 192.531 54.4554 191.001 52.3954 191.001C50.3354 191.001 49.5654 192.471 49.5654 194.471C49.5654 199.081 56.4354 199.161 56.4354 204.411C56.4354 207.151 55.2454 209.161 52.3354 209.161C49.4254 209.161 48.2354 207.161 48.2354 204.411V203.411H49.4354V204.471C49.4354 206.471 50.2154 207.971 52.3054 207.971C54.3954 207.971 55.1854 206.501 55.1854 204.471C55.1854 199.901 48.3154 199.821 48.3154 194.531C48.3154 191.671 49.5654 189.831 52.3154 189.801C55.0654 189.771 56.4154 191.871 56.4154 194.611Z" fill="#263238"/>
<path d="M59.5354 206.651V209.041H58.3154V206.651H59.5354Z" fill="#263238"/>
<path d="M62.9354 206.651V209.041H61.7054V206.651H62.9354Z" fill="#263238"/>
<path d="M66.3254 206.651V209.041H65.0654V206.651H66.3254Z" fill="#263238"/>
<path d="M21.7454 217.691C24.6854 217.691 25.8254 219.531 25.8254 222.301V224.371C25.8254 227.371 24.4354 228.881 21.4254 228.881H19.0654V236.701H17.8054V217.701L21.7454 217.691ZM21.4254 227.691C23.6254 227.691 24.5754 226.691 24.5754 224.401V222.171C24.5754 220.111 23.8654 218.781 21.7454 218.781H19.0654V227.691H21.4254Z" fill="#263238"/>
<path d="M29.1654 232.471L28.2154 236.681H27.0654L31.2154 217.681H33.0654L37.3054 236.681H36.0654L35.0654 232.471H29.1654ZM29.3554 231.381H34.8954L32.0654 219.101L29.3554 231.381Z" fill="#263238"/>
<path d="M47.2854 222.331V223.741H46.0654V222.251C46.0654 220.251 45.2854 218.661 43.1854 218.661C41.0854 218.661 40.3154 220.211 40.3154 222.251V232.141C40.3154 234.141 41.0954 235.691 43.1854 235.691C45.2754 235.691 46.0654 234.171 46.0654 232.141V228.031H43.5654V226.891H47.2854V232.051C47.2854 234.801 46.0854 236.861 43.1854 236.861C40.2854 236.861 39.0854 234.801 39.0854 232.051V222.331C39.0854 219.591 40.2754 217.521 43.1854 217.521C46.0954 217.521 47.2854 219.591 47.2854 222.331Z" fill="#263238"/>
<path d="M55.8154 226.471V227.611H50.6254V235.541H56.8754V236.681H49.3754V217.681H56.8754V218.821H50.6254V226.471H55.8154Z" fill="#263238"/>
<path d="M64.2654 236.701H63.1254V217.701H64.7554L70.4554 233.701V217.701H71.5954V236.701H70.2154L64.2154 219.701L64.2654 236.701Z" fill="#263238"/>
<path d="M73.6654 222.331C73.6654 219.561 74.9354 217.521 77.8154 217.521C80.6954 217.521 82.0254 219.521 82.0254 222.331V232.051C82.0254 234.821 80.7554 236.861 77.8154 236.861C74.8754 236.861 73.6654 234.861 73.6654 232.051V222.331ZM74.9154 232.141C74.9154 234.201 75.7254 235.721 77.8154 235.721C79.9054 235.721 80.8154 234.201 80.8154 232.141V222.251C80.8154 220.181 79.9754 218.661 77.8154 218.661C75.6554 218.661 74.9154 220.181 74.9154 222.251V232.141Z" fill="#263238"/>
<path d="M87.2954 236.701V218.831H83.4454V217.691H92.4454V218.831H88.5554V236.701H87.2954Z" fill="#263238"/>
<path d="M104.355 226.951V228.091H99.4454V236.701H98.1954V217.701H105.415V218.841H99.4154V226.961L104.355 226.951Z" fill="#263238"/>
<path d="M107.235 222.331C107.235 219.561 108.515 217.521 111.395 217.521C114.275 217.521 115.605 219.521 115.605 222.331V232.051C115.605 234.821 114.325 236.861 111.395 236.861C108.465 236.861 107.235 234.861 107.235 232.051V222.331ZM108.485 232.141C108.485 234.201 109.305 235.721 111.395 235.721C113.485 235.721 114.395 234.201 114.395 232.141V222.251C114.395 220.181 113.555 218.661 111.395 218.661C109.235 218.661 108.485 220.181 108.485 222.251V232.141Z" fill="#263238"/>
<path d="M118.865 232.111C118.865 234.111 119.625 235.721 121.715 235.721C123.805 235.721 124.565 234.151 124.565 232.111V217.691H125.735V232.051C125.735 234.771 124.595 236.861 121.735 236.861C118.875 236.861 117.655 234.771 117.655 232.051V217.691H118.905L118.865 232.111Z" fill="#263238"/>
<path d="M129.065 236.701H127.925V217.701H129.555L135.255 233.701V217.701H136.395V236.701H135.015L129.065 219.701V236.701Z" fill="#263238"/>
<path d="M142.685 217.691C145.625 217.691 146.895 219.611 146.895 222.411V231.971C146.895 234.771 145.625 236.701 142.685 236.701H138.505V217.701L142.685 217.691ZM142.685 235.561C144.805 235.561 145.685 234.121 145.685 232.031V222.361C145.685 220.271 144.795 218.831 142.685 218.831H139.775V235.561H142.685Z" fill="#263238"/>
<path d="M190.215 283.751C167.955 283.751 154.575 264.001 149.825 246.631L149.665 246.021C149.412 245.179 149.332 244.294 149.428 243.42C149.525 242.546 149.797 241.7 150.228 240.933C150.659 240.167 151.24 239.495 151.937 238.958C152.634 238.422 153.432 238.031 154.283 237.809C155.134 237.588 156.021 237.541 156.891 237.67C157.761 237.799 158.595 238.103 159.345 238.562C160.095 239.022 160.745 239.628 161.255 240.344C161.765 241.06 162.126 241.872 162.315 242.731L162.435 243.181C166.045 256.401 175.875 271.511 191.645 270.641C194.611 270.538 197.521 269.813 200.188 268.512C202.855 267.211 205.219 265.364 207.125 263.091C215.775 253.171 219.645 231.601 218.785 220.721C218.704 220.023 218.764 219.315 218.962 218.641C219.161 217.966 219.493 217.339 219.939 216.796C220.385 216.253 220.936 215.805 221.559 215.479C222.182 215.154 222.864 214.958 223.565 214.902C224.266 214.846 224.97 214.932 225.637 215.155C226.304 215.377 226.919 215.732 227.445 216.198C227.972 216.663 228.399 217.231 228.701 217.865C229.004 218.5 229.175 219.189 229.205 219.891C230.205 232.001 228.885 258.031 216.975 271.681C213.927 275.27 210.168 278.189 205.936 280.255C201.704 282.32 197.091 283.486 192.385 283.681C191.655 283.731 190.925 283.751 190.215 283.751Z" fill="white"/>
<path d="M223.575 215.091C222.194 215.203 220.914 215.859 220.015 216.915C219.117 217.97 218.675 219.339 218.785 220.721C219.205 226.031 218.495 233.881 216.655 241.721C219.283 241.61 221.911 241.948 224.425 242.721C223.831 250.244 221.188 257.461 216.785 263.591C207.075 277.081 192.515 281.391 181.185 279.771C176.115 279.051 170.305 276.391 165.415 273.661C172.05 280.131 180.948 283.758 190.215 283.771C190.925 283.771 191.655 283.771 192.385 283.711C197.091 283.516 201.704 282.35 205.936 280.285C210.168 278.219 213.927 275.3 216.975 271.711C228.885 258.061 230.165 232.031 229.205 219.921C229.156 219.233 228.971 218.561 228.661 217.945C228.35 217.329 227.921 216.781 227.398 216.332C226.874 215.883 226.267 215.542 225.611 215.329C224.955 215.116 224.263 215.035 223.575 215.091V215.091Z" fill="#92E3A9"/>
<path opacity="0.5" d="M223.575 215.091C222.194 215.203 220.914 215.859 220.015 216.915C219.117 217.97 218.675 219.339 218.785 220.721C219.205 226.031 218.495 233.881 216.655 241.721C219.283 241.61 221.911 241.948 224.425 242.721C223.831 250.244 221.188 257.461 216.785 263.591C207.075 277.081 192.515 281.391 181.185 279.771C176.115 279.051 170.305 276.391 165.415 273.661C172.05 280.131 180.948 283.758 190.215 283.771C190.925 283.771 191.655 283.771 192.385 283.711C197.091 283.516 201.704 282.35 205.936 280.285C210.168 278.219 213.927 275.3 216.975 271.711C228.885 258.061 230.165 232.031 229.205 219.921C229.156 219.233 228.971 218.561 228.661 217.945C228.35 217.329 227.921 216.781 227.398 216.332C226.874 215.883 226.267 215.542 225.611 215.329C224.955 215.116 224.263 215.035 223.575 215.091V215.091Z" fill="white"/>
<path d="M190.215 283.751C167.955 283.751 154.575 264.001 149.825 246.631L149.665 246.021C149.412 245.179 149.332 244.294 149.428 243.42C149.525 242.546 149.797 241.7 150.228 240.933C150.659 240.167 151.24 239.495 151.937 238.958C152.634 238.422 153.432 238.031 154.283 237.809C155.134 237.588 156.021 237.541 156.891 237.67C157.761 237.799 158.595 238.103 159.345 238.562C160.095 239.022 160.745 239.628 161.255 240.344C161.765 241.06 162.126 241.872 162.315 242.731L162.435 243.181C166.045 256.401 175.875 271.511 191.645 270.641C194.611 270.538 197.521 269.813 200.188 268.512C202.855 267.211 205.219 265.364 207.125 263.091C215.775 253.171 219.645 231.601 218.785 220.721C218.704 220.023 218.764 219.315 218.962 218.641C219.161 217.966 219.493 217.339 219.939 216.796C220.385 216.253 220.936 215.805 221.559 215.479C222.182 215.154 222.864 214.958 223.565 214.902C224.266 214.846 224.97 214.932 225.637 215.155C226.304 215.377 226.919 215.732 227.445 216.198C227.972 216.663 228.399 217.231 228.701 217.865C229.004 218.5 229.175 219.189 229.205 219.891C230.205 232.001 228.885 258.031 216.975 271.681C213.927 275.27 210.168 278.189 205.936 280.255C201.704 282.32 197.091 283.486 192.385 283.681C191.655 283.731 190.925 283.751 190.215 283.751Z" stroke="#263238" stroke-width="1.1133" stroke-linecap="round" stroke-linejoin="round"/>
<path d="M177.375 270.221C177.905 267.771 172.045 271.601 167.135 275.171C168.952 276.706 170.907 278.068 172.975 279.241C174.725 276.391 176.865 272.581 177.375 270.221Z" fill="#92E3A9" stroke="#263238" stroke-width="1.1133" stroke-linecap="round" stroke-linejoin="round"/>
<path d="M190.215 283.751C190.925 283.751 191.655 283.751 192.385 283.691C194.51 283.572 196.621 283.274 198.695 282.801C195.935 279.201 192.135 274.441 191.045 274.081C189.795 273.661 187.385 279.791 186.045 283.511C187.43 283.672 188.822 283.752 190.215 283.751V283.751Z" fill="#92E3A9" stroke="#263238" stroke-width="1.1133" stroke-linecap="round" stroke-linejoin="round"/>
<path d="M162.435 243.181L162.315 242.731C162.126 241.872 161.765 241.06 161.255 240.344C160.745 239.628 160.095 239.022 159.345 238.562C158.595 238.103 157.761 237.799 156.891 237.67C156.021 237.541 155.134 237.588 154.283 237.809C153.432 238.031 152.634 238.422 151.937 238.958C151.24 239.495 150.659 240.167 150.228 240.933C149.797 241.7 149.525 242.546 149.428 243.42C149.332 244.294 149.412 245.179 149.665 246.021L149.825 246.631C151.493 252.731 154.054 258.551 157.425 263.901L169.335 258.231C166.212 253.634 163.88 248.547 162.435 243.181Z" fill="#92E3A9" stroke="#263238" stroke-width="1.1133" stroke-linecap="round" stroke-linejoin="round"/>
<path d="M216.975 271.681C217.891 270.621 218.739 269.506 219.515 268.341C215.735 267.051 210.075 265.271 207.975 265.461C205.485 265.691 208.865 273.691 210.605 277.461C212.948 275.79 215.086 273.85 216.975 271.681V271.681Z" fill="#92E3A9" stroke="#263238" stroke-width="1.1133" stroke-linecap="round" stroke-linejoin="round"/>
<path d="M217.185 250.311C216.785 251.111 221.675 254.671 224.975 256.961C226.022 253.846 226.864 250.666 227.495 247.441C223.495 248.241 217.575 249.531 217.185 250.311Z" fill="#92E3A9" stroke="#263238" stroke-width="1.1133" stroke-linecap="round" stroke-linejoin="round"/>
<path d="M229.115 235.521C229.335 232.671 229.445 229.951 229.455 227.451C226.015 229.341 221.935 231.961 221.935 233.681C221.935 235.401 225.755 235.611 229.115 235.521Z" fill="#92E3A9" stroke="#263238" stroke-width="1.1133" stroke-linecap="round" stroke-linejoin="round"/>
<path d="M175.275 158.151C175.275 158.151 165.565 186.271 170.795 208.151C172.345 214.554 175.352 220.512 179.582 225.561C183.813 230.611 189.153 234.615 195.185 237.261C195.185 237.261 180.995 242.261 184.185 249.951C187.375 257.641 199.605 252.691 203.595 250.201C207.585 247.711 212.595 240.251 213.295 235.271C213.74 232.726 213.908 230.141 213.795 227.561C213.795 227.561 229.965 225.821 240.915 216.861C240.915 216.861 250.625 224.571 257.595 223.081C264.565 221.591 274.515 209.141 273.515 197.951C272.515 186.761 266.065 186.771 262.125 188.471C260.08 189.244 258.215 190.429 256.645 191.951C256.645 191.951 262.365 184.951 256.645 175.281C254.957 172.444 252.646 170.029 249.886 168.219C247.126 166.408 243.99 165.25 240.715 164.831C240.715 164.831 237.715 148.901 228.775 142.931C219.835 136.961 187.965 130.781 175.275 158.151Z" fill="white"/>
<path d="M249.205 167.821C244.589 175.521 238.201 182.009 230.572 186.743C222.944 191.478 214.295 194.322 205.345 195.041C185.545 196.781 174.445 192.881 169.345 190.171C169.964 179.291 171.981 168.536 175.345 158.171C188.035 130.801 219.885 137.021 228.845 142.991C237.805 148.961 240.785 164.891 240.785 164.891C243.767 165.265 246.636 166.263 249.205 167.821ZM262.125 188.471C260.08 189.244 258.215 190.429 256.645 191.951C257.857 190.281 258.655 188.348 258.975 186.311C245.525 193.011 246.575 207.311 244.905 207.311C242.845 207.311 241.825 200.121 241.825 200.121C241.825 200.121 239.255 210.391 223.825 217.591C208.395 224.791 190.945 219.131 190.945 219.131C190.945 219.131 194.545 227.351 185.295 226.321C182.7 226.073 180.21 225.164 178.065 223.681C182.501 229.595 188.392 234.259 195.165 237.221C195.165 237.221 180.975 242.221 184.165 249.911C187.355 257.601 199.595 252.651 203.575 250.161C207.555 247.671 212.575 240.211 213.275 235.231C213.72 232.686 213.888 230.101 213.775 227.521C213.775 227.521 229.945 225.781 240.895 216.821C240.895 216.821 250.605 224.531 257.575 223.041C264.545 221.551 274.495 209.101 273.495 197.911C272.495 186.721 266.065 186.771 262.125 188.471Z" fill="#92E3A9"/>
<path opacity="0.5" d="M249.205 167.821C244.589 175.521 238.201 182.009 230.572 186.743C222.944 191.478 214.295 194.322 205.345 195.041C185.545 196.781 174.445 192.881 169.345 190.171C169.964 179.291 171.981 168.536 175.345 158.171C188.035 130.801 219.885 137.021 228.845 142.991C237.805 148.961 240.785 164.891 240.785 164.891C243.767 165.265 246.636 166.263 249.205 167.821ZM262.125 188.471C260.08 189.244 258.215 190.429 256.645 191.951C257.857 190.281 258.655 188.348 258.975 186.311C245.525 193.011 246.575 207.311 244.905 207.311C242.845 207.311 241.825 200.121 241.825 200.121C241.825 200.121 239.255 210.391 223.825 217.591C208.395 224.791 190.945 219.131 190.945 219.131C190.945 219.131 194.545 227.351 185.295 226.321C182.7 226.073 180.21 225.164 178.065 223.681C182.501 229.595 188.392 234.259 195.165 237.221C195.165 237.221 180.975 242.221 184.165 249.911C187.355 257.601 199.595 252.651 203.575 250.161C207.555 247.671 212.575 240.211 213.275 235.231C213.72 232.686 213.888 230.101 213.775 227.521C213.775 227.521 229.945 225.781 240.895 216.821C240.895 216.821 250.605 224.531 257.575 223.041C264.545 221.551 274.495 209.101 273.495 197.911C272.495 186.721 266.065 186.771 262.125 188.471Z" fill="white"/>
<path d="M213.845 227.581C208.479 227.724 203.151 226.634 198.271 224.396C193.391 222.158 189.089 218.831 185.695 214.671" stroke="#263238" stroke-width="1.1133" stroke-linecap="round" stroke-linejoin="round"/>
<path d="M175.275 158.151C175.275 158.151 165.565 186.271 170.795 208.151C172.345 214.554 175.352 220.512 179.582 225.561C183.813 230.611 189.153 234.615 195.185 237.261C195.185 237.261 180.995 242.261 184.185 249.951C187.375 257.641 199.605 252.691 203.595 250.201C207.585 247.711 212.595 240.251 213.295 235.271C213.74 232.726 213.908 230.141 213.795 227.561C213.795 227.561 229.965 225.821 240.915 216.861C240.915 216.861 250.625 224.571 257.595 223.081C264.565 221.591 274.515 209.141 273.515 197.951C272.515 186.761 266.065 186.771 262.125 188.471C260.08 189.244 258.215 190.429 256.645 191.951C256.645 191.951 262.365 184.951 256.645 175.281C254.957 172.444 252.646 170.029 249.886 168.219C247.126 166.408 243.99 165.25 240.715 164.831C240.715 164.831 237.715 148.901 228.775 142.931C219.835 136.961 187.965 130.781 175.275 158.151Z" stroke="#263238" stroke-width="1.1133" stroke-linecap="round" stroke-linejoin="round"/>
<path d="M256.645 191.991C256.645 191.991 251.425 195.481 248.935 206.181" stroke="#263238" stroke-width="1.1133" stroke-linecap="round" stroke-linejoin="round"/>
<path d="M266.235 196.571C265.625 198.391 263.955 199.481 262.515 198.991C261.075 198.501 260.415 196.631 261.025 194.811C261.635 192.991 263.305 191.901 264.745 192.391C266.185 192.881 266.855 194.751 266.235 196.571Z" fill="white" stroke="#263238" stroke-width="1.1133" stroke-linecap="round" stroke-linejoin="round"/>
<path d="M271.385 199.811C270.775 201.631 269.105 202.721 267.665 202.231C266.225 201.741 265.555 199.871 266.175 198.051C266.795 196.231 268.455 195.141 269.895 195.631C271.335 196.121 272.005 197.991 271.385 199.811Z" fill="white" stroke="#263238" stroke-width="1.1133" stroke-linecap="round" stroke-linejoin="round"/>
<path d="M272.485 204.661C272.286 204.996 271.995 205.267 271.648 205.443C271.3 205.619 270.91 205.693 270.522 205.656C270.134 205.62 269.764 205.473 269.456 205.235C269.147 204.996 268.913 204.675 268.78 204.309C268.647 203.943 268.62 203.546 268.704 203.165C268.787 202.785 268.977 202.435 269.25 202.158C269.524 201.881 269.871 201.687 270.251 201.599C270.631 201.511 271.027 201.532 271.395 201.661C271.926 201.926 272.336 202.385 272.538 202.944C272.741 203.502 272.722 204.116 272.485 204.661V204.661Z" fill="white" stroke="#263238" stroke-width="1.1133" stroke-linecap="round" stroke-linejoin="round"/>
<path d="M265.915 211.321C264.115 214.571 260.515 216.011 257.865 214.541C255.215 213.071 254.535 209.261 256.335 206.011C258.135 202.761 261.735 201.321 264.385 202.791C267.035 204.261 267.715 208.071 265.915 211.321Z" fill="white" stroke="#263238" stroke-width="1.1133" stroke-linecap="round" stroke-linejoin="round"/>
<path d="M195.185 237.281C198.538 238.841 202.348 239.108 205.885 238.031" stroke="#263238" stroke-width="1.1133" stroke-linecap="round" stroke-linejoin="round"/>
<path d="M184.235 249.971C184.235 249.971 185.235 245.741 191.445 242.761" stroke="#263238" stroke-width="1.1133" stroke-linecap="round" stroke-linejoin="round"/>
<path d="M190.455 253.711C190.455 253.711 192.945 247.711 197.175 245.001" stroke="#263238" stroke-width="1.1133" stroke-linecap="round" stroke-linejoin="round"/>
<path d="M92.3254 184.871C91.2676 184.027 90.4244 182.944 89.8648 181.712C89.3052 180.48 89.0449 179.133 89.1054 177.781V154.071H27.9454C26.4515 154.127 24.963 153.859 23.5822 153.286C22.2014 152.713 20.9608 151.848 19.9454 150.751C17.945 148.635 16.8474 145.823 16.8854 142.911C16.8773 140.545 17.5735 138.23 18.8854 136.261L77.4654 44.2008C81.8654 37.4075 87.7121 34.0108 95.0054 34.0108C98.9265 33.8776 102.755 35.2192 105.735 37.7708C108.595 40.2708 110.025 43.9875 110.025 48.9208V138.411H125.585C126.66 138.346 127.736 138.519 128.737 138.916C129.737 139.314 130.638 139.926 131.375 140.711C132.691 142.253 133.414 144.214 133.414 146.241C133.414 148.268 132.691 150.229 131.375 151.771C130.638 152.555 129.737 153.168 128.737 153.566C127.736 153.963 126.66 154.136 125.585 154.071H109.915V177.781C109.98 179.123 109.733 180.461 109.194 181.691C108.654 182.921 107.837 184.01 106.805 184.871C104.793 186.558 102.242 187.47 99.6154 187.441C96.9599 187.462 94.3807 186.553 92.3254 184.871ZM89.0654 138.411V56.0108L37.7754 138.411H89.0654Z" fill="white"/>
<path d="M177.195 185.351C171.201 182.735 165.893 178.768 161.685 173.761C157.459 168.47 154.16 162.503 151.925 156.111C149.393 149.206 147.613 142.048 146.615 134.761C145.575 126.827 145.073 118.832 145.115 110.831C145.115 58.1175 163.115 31.7608 199.115 31.7608C235.115 31.7608 253.072 58.1175 252.985 110.831C253.021 118.794 252.537 126.751 251.535 134.651C250.57 141.939 248.807 149.099 246.275 156.001C244.041 162.393 240.741 168.36 236.515 173.651C232.303 178.665 226.997 182.647 221.005 185.291C214.117 188.336 206.646 189.838 199.115 189.691C191.581 189.842 184.104 188.362 177.195 185.351V185.351ZM209.755 170.221C212.768 168.936 215.502 167.078 217.805 164.751C220.138 162.267 222.056 159.424 223.485 156.331C225.063 153.054 226.338 149.64 227.295 146.131C228.304 142.308 229.039 138.418 229.495 134.491C230.035 130.158 230.395 126.188 230.575 122.581C230.755 118.974 230.842 115.057 230.835 110.831C230.835 106.398 230.749 102.304 230.575 98.5508C230.402 94.7975 230.025 90.7708 229.445 86.4708C228.948 82.5463 228.196 78.6582 227.195 74.8308C226.249 71.3573 224.973 67.982 223.385 64.7508C221.945 61.7065 220.024 58.9141 217.695 56.4808C215.405 54.2003 212.686 52.3956 209.695 51.1708C202.858 48.531 195.283 48.531 188.445 51.1708C185.476 52.3809 182.778 54.1689 180.505 56.4308C178.194 58.8535 176.278 61.6239 174.825 64.6408C173.223 67.8429 171.963 71.2048 171.065 74.6708C170.089 78.5212 169.354 82.4288 168.865 86.3708C168.285 90.7308 167.909 94.7908 167.735 98.5508C167.562 102.311 167.472 106.404 167.465 110.831C167.465 115.051 167.555 118.984 167.735 122.631C167.915 126.278 168.272 130.278 168.805 134.631C169.267 138.557 170.002 142.447 171.005 146.271C171.95 149.778 173.211 153.192 174.775 156.471C176.19 159.545 178.091 162.371 180.405 164.841C182.692 167.153 185.41 168.995 188.405 170.261C195.249 173.047 202.912 173.047 209.755 170.261V170.221Z" fill="white"/>
<path d="M345.645 184.871C344.588 184.027 343.744 182.944 343.185 181.712C342.625 180.48 342.365 179.133 342.425 177.781V154.071H281.265C279.771 154.127 278.283 153.859 276.902 153.286C275.521 152.713 274.281 151.848 273.265 150.751C271.265 148.635 270.167 145.823 270.205 142.911C270.197 140.545 270.894 138.23 272.205 136.261L330.785 44.2008C335.145 37.4075 340.975 34.0108 348.275 34.0108C352.217 33.8624 356.07 35.205 359.065 37.7708C361.925 40.2708 363.355 43.9875 363.355 48.9208V138.411H378.915C379.99 138.346 381.066 138.519 382.067 138.916C383.067 139.314 383.968 139.926 384.705 140.711C386.021 142.253 386.744 144.214 386.744 146.241C386.744 148.268 386.021 150.229 384.705 151.771C383.968 152.555 383.067 153.168 382.067 153.566C381.066 153.963 379.99 154.136 378.915 154.071H363.235V177.781C363.3 179.123 363.053 180.461 362.514 181.691C361.974 182.921 361.157 184.01 360.125 184.871C358.113 186.559 355.562 187.47 352.935 187.441C350.28 187.462 347.701 186.553 345.645 184.871V184.871ZM342.425 138.411V56.0108L291.135 138.411H342.425Z" fill="white"/>
<path d="M155.115 143.971C155.115 143.971 144.665 158.651 143.175 173.581C141.685 188.511 143.425 198.461 147.905 202.201C152.385 205.941 156.855 204.441 159.345 200.951C161.835 197.461 157.855 185.271 157.855 185.271C157.855 185.271 162.085 173.581 168.555 165.371C175.025 157.161 176.265 155.911 176.265 155.911C176.265 155.911 165.065 143.221 155.115 143.971Z" fill="white"/>
<path d="M155.115 143.971C152.835 147.34 150.813 150.877 149.065 154.551C154.065 156.551 161.815 160.651 166.735 167.911C167.335 167.041 167.955 166.181 168.595 165.371C175.065 157.161 176.305 155.911 176.305 155.911C176.305 155.911 165.065 143.221 155.115 143.971Z" fill="#92E3A9"/>
<path opacity="0.5" d="M155.115 143.971C152.835 147.34 150.813 150.877 149.065 154.551C154.065 156.551 161.815 160.651 166.735 167.911C167.335 167.041 167.955 166.181 168.595 165.371C175.065 157.161 176.305 155.911 176.305 155.911C176.305 155.911 165.065 143.221 155.115 143.971Z" fill="white"/>
<path d="M155.115 143.971C155.115 143.971 144.665 158.651 143.175 173.581C141.685 188.511 143.425 198.461 147.905 202.201C152.385 205.941 156.855 204.441 159.345 200.951C161.835 197.461 157.855 185.271 157.855 185.271C157.855 185.271 162.085 173.581 168.555 165.371C175.025 157.161 176.265 155.911 176.265 155.911C176.265 155.911 165.065 143.221 155.115 143.971Z" stroke="#263238" stroke-width="1.1133" stroke-linecap="round" stroke-linejoin="round"/>
<path d="M147.905 202.201C146.684 198.938 146.09 195.474 146.155 191.991" stroke="#263238" stroke-width="1.1133" stroke-linecap="round" stroke-linejoin="round"/>
<path d="M154.615 203.691C154.615 203.691 152.135 199.461 151.885 192.241" stroke="#263238" stroke-width="1.1133" stroke-linecap="round" stroke-linejoin="round"/>
<path d="M158.355 170.591C158.355 167.971 153.355 162.851 146.405 160.591C145.471 163.027 144.699 165.522 144.095 168.061C146.796 168.523 149.418 169.361 151.885 170.551C155.615 172.581 158.355 173.581 158.355 170.591Z" fill="#92E3A9" stroke="#263238" stroke-width="1.1133" stroke-linecap="round" stroke-linejoin="round"/>
<path d="M154.505 144.861C152.893 147.318 151.411 149.858 150.065 152.471C152.17 153.027 154.188 153.868 156.065 154.971C163.775 159.441 165.265 159.971 162.785 153.471C161.285 149.391 157.705 146.621 154.505 144.861Z" fill="#92E3A9" stroke="#263238" stroke-width="1.1133" stroke-linecap="round" stroke-linejoin="round"/>
<path d="M236.965 136.721C236.965 136.721 248.805 150.301 251.755 165.021C254.705 179.741 253.955 189.811 249.855 193.961C245.755 198.111 241.165 197.071 238.345 193.841C235.525 190.611 238.345 178.101 238.345 178.101C238.345 178.101 232.985 166.871 225.745 159.331C218.505 151.791 217.135 150.681 217.135 150.681C217.135 150.681 226.985 136.951 236.965 136.721Z" fill="white"/>
<path d="M236.965 136.721C226.965 136.951 217.085 150.721 217.085 150.721C217.085 150.721 218.445 151.841 225.695 159.371C227.051 160.799 228.327 162.301 229.515 163.871C233.299 157.479 238.705 152.201 245.185 148.571C242.801 144.386 240.05 140.42 236.965 136.721V136.721Z" fill="#92E3A9"/>
<path opacity="0.5" d="M236.965 136.721C226.965 136.951 217.085 150.721 217.085 150.721C217.085 150.721 218.445 151.841 225.695 159.371C227.051 160.799 228.327 162.301 229.515 163.871C233.299 157.479 238.705 152.201 245.185 148.571C242.801 144.386 240.05 140.42 236.965 136.721V136.721Z" fill="white"/>
<path d="M236.965 136.721C236.965 136.721 248.805 150.301 251.755 165.021C254.705 179.741 253.955 189.811 249.855 193.961C245.755 198.111 241.165 197.071 238.345 193.841C235.525 190.611 238.345 178.101 238.345 178.101C238.345 178.101 232.985 166.871 225.745 159.331C218.505 151.791 217.135 150.681 217.135 150.681C217.135 150.681 226.985 136.951 236.965 136.721Z" stroke="#263238" stroke-width="1.1133" stroke-linecap="round" stroke-linejoin="round"/>
<path d="M249.855 193.961C250.752 190.598 251.003 187.097 250.595 183.641" stroke="#263238" stroke-width="1.1133" stroke-linecap="round" stroke-linejoin="round"/>
<path d="M243.315 196.101C243.315 196.101 245.385 191.651 244.925 184.441" stroke="#263238" stroke-width="1.1133" stroke-linecap="round" stroke-linejoin="round"/>
<path d="M236.355 163.531C236.105 160.921 240.575 155.341 247.275 152.451C248.434 154.782 249.436 157.187 250.275 159.651C247.639 160.386 245.115 161.48 242.775 162.901C239.275 165.251 236.655 166.471 236.355 163.531Z" fill="#92E3A9" stroke="#263238" stroke-width="1.1133" stroke-linecap="round" stroke-linejoin="round"/>
<path d="M237.655 137.551C239.495 139.82 241.211 142.187 242.795 144.641C240.748 145.399 238.814 146.432 237.045 147.711C229.815 152.931 228.375 153.571 230.215 146.891C231.365 142.721 234.645 139.611 237.655 137.551Z" fill="#92E3A9" stroke="#263238" stroke-width="1.1133" stroke-linecap="round" stroke-linejoin="round"/>
<path d="M154.135 131.271C154.135 131.271 151.055 141.661 152.215 145.891C153.375 150.121 158.755 146.281 164.145 150.891C169.535 155.501 174.525 163.821 194.935 165.361C215.345 166.901 227.665 155.891 231.935 149.731C236.205 143.571 235.785 136.261 243.095 135.881C250.405 135.501 244.255 121.251 241.945 118.941C241.945 118.941 256.185 97.7708 256.185 92.3808C256.185 86.9908 242.715 88.1408 226.185 93.1508C226.185 93.1508 213.865 86.6008 191.535 90.4508C169.205 94.3008 162.665 100.851 162.665 100.851C162.665 100.851 134.945 104.311 133.025 107.771C131.105 111.231 136.815 125.881 154.135 131.271Z" fill="white"/>
<path d="M243.065 135.891C250.385 135.501 244.225 121.261 241.915 118.951C241.915 118.951 244.625 114.951 247.675 109.951C239.405 105.631 231.285 103.231 229.125 105.661C224.475 110.881 227.005 120.881 229.125 130.661C231.245 140.441 222.775 144.611 216.855 153.071C210.935 161.531 202.485 152.221 202.485 152.221C199.485 164.491 186.835 156.451 186.835 156.451C177.115 153.451 160.625 143.771 164.005 137.001C167.385 130.231 168.235 123.891 162.315 118.401C156.395 112.911 132.785 108.341 132.785 108.341C131.545 112.511 137.535 126.171 154.145 131.341C154.145 131.341 151.065 141.731 152.225 145.961C153.385 150.191 158.765 146.351 164.155 150.961C169.545 155.571 174.535 163.891 194.945 165.431C215.355 166.971 227.675 155.961 231.945 149.801C236.215 143.641 235.745 136.271 243.065 135.891Z" fill="#92E3A9"/>
<path opacity="0.5" d="M243.065 135.891C250.385 135.501 244.225 121.261 241.915 118.951C241.915 118.951 244.625 114.951 247.675 109.951C239.405 105.631 231.285 103.231 229.125 105.661C224.475 110.881 227.005 120.881 229.125 130.661C231.245 140.441 222.775 144.611 216.855 153.071C210.935 161.531 202.485 152.221 202.485 152.221C199.485 164.491 186.835 156.451 186.835 156.451C177.115 153.451 160.625 143.771 164.005 137.001C167.385 130.231 168.235 123.891 162.315 118.401C156.395 112.911 132.785 108.341 132.785 108.341C131.545 112.511 137.535 126.171 154.145 131.341C154.145 131.341 151.065 141.731 152.225 145.961C153.385 150.191 158.765 146.351 164.155 150.961C169.545 155.571 174.535 163.891 194.945 165.431C215.355 166.971 227.675 155.961 231.945 149.801C236.215 143.641 235.745 136.271 243.065 135.891Z" fill="white"/>
<path d="M212.955 138.211C213.245 140.651 207.825 143.281 200.875 144.091C193.925 144.901 188.045 143.581 187.755 141.091C187.465 138.601 192.885 136.031 199.845 135.221C206.805 134.411 212.675 135.781 212.955 138.211Z" fill="#92E3A9"/>
<path opacity="0.5" d="M212.955 138.211C213.245 140.651 207.825 143.281 200.875 144.091C193.925 144.901 188.045 143.581 187.755 141.091C187.465 138.601 192.885 136.031 199.845 135.221C206.805 134.411 212.675 135.781 212.955 138.211Z" fill="white"/>
<path d="M154.135 131.271C154.135 131.271 151.055 141.661 152.215 145.891C153.375 150.121 158.755 146.281 164.145 150.891C169.535 155.501 174.525 163.821 194.935 165.361C215.345 166.901 227.665 155.891 231.935 149.731C236.205 143.571 235.785 136.261 243.095 135.881C250.405 135.501 244.255 121.251 241.945 118.941C241.945 118.941 256.185 97.7708 256.185 92.3808C256.185 86.9908 242.715 88.1408 226.185 93.1508C226.185 93.1508 213.865 86.6008 191.535 90.4508C169.205 94.3008 162.665 100.851 162.665 100.851C162.665 100.851 134.945 104.311 133.025 107.771C131.105 111.231 136.815 125.881 154.135 131.271Z" stroke="#263238" stroke-width="1.1133" stroke-miterlimit="10"/>
<path d="M233.755 100.471C223.755 107.191 227.285 113.911 231.755 117.641C234.485 119.921 238.885 119.641 241.895 119.001C241.895 119.001 256.135 97.8308 256.135 92.4408C256.145 92.3908 243.705 93.7008 233.755 100.471Z" fill="#92E3A9" stroke="#263238" stroke-width="1.1133" stroke-miterlimit="10"/>
<path d="M132.775 108.271C131.535 112.441 137.525 126.101 154.135 131.271C154.135 131.271 166.815 130.031 162.585 119.831C158.635 110.311 138.665 107.941 132.775 108.271Z" fill="#92E3A9" stroke="#263238" stroke-width="1.1133" stroke-miterlimit="10"/>
<path d="M191.475 90.4708C190.165 90.7008 188.905 90.9408 187.695 91.1808C189.695 101.281 192.985 118.101 195.925 118.101C198.865 118.101 201.115 99.6608 202.075 89.3308C198.521 89.4805 194.98 89.8613 191.475 90.4708V90.4708Z" fill="#92E3A9" stroke="#263238" stroke-width="1.1133" stroke-miterlimit="10"/>
<path d="M180.005 115.101C183.065 113.301 182.605 99.7708 182.115 92.4308C178.957 93.2155 175.848 94.1872 172.805 95.3408C173.915 102.211 176.735 117.021 180.005 115.101Z" fill="#92E3A9" stroke="#263238" stroke-width="1.1133" stroke-miterlimit="10"/>
<path d="M209.615 108.881C212.745 109.981 214.505 98.7308 215.495 90.0708C212.334 89.5556 209.138 89.2848 205.935 89.2608C205.835 96.3708 206.225 107.691 209.615 108.881Z" fill="#92E3A9" stroke="#263238" stroke-width="1.1133" stroke-miterlimit="10"/>
<path d="M205.425 147.821C202.505 147.053 199.401 147.436 196.755 148.891C196.639 148.958 196.541 149.051 196.467 149.163C196.394 149.275 196.347 149.403 196.332 149.536C196.316 149.669 196.332 149.804 196.378 149.93C196.423 150.055 196.498 150.169 196.595 150.261L201.905 155.261C202.005 155.354 202.125 155.422 202.256 155.46C202.388 155.497 202.526 155.503 202.66 155.477C202.793 155.451 202.919 155.393 203.026 155.308C203.133 155.224 203.219 155.115 203.275 154.991L205.995 148.991C206.044 148.877 206.068 148.755 206.065 148.631C206.062 148.508 206.032 148.386 205.978 148.275C205.924 148.164 205.847 148.066 205.751 147.988C205.656 147.909 205.545 147.852 205.425 147.821V147.821Z" fill="#92E3A9" stroke="#263238" stroke-width="1.1133" stroke-linecap="round" stroke-linejoin="round"/>
<path d="M192.805 139.471C193.535 141.401 193.245 143.301 192.155 143.711C191.065 144.121 189.585 142.901 188.845 140.981C188.105 139.061 188.405 137.151 189.495 136.741C190.585 136.331 192.065 137.551 192.805 139.471Z" fill="#263238"/>
<path d="M207.285 138.101C206.905 140.101 207.525 141.951 208.675 142.161C209.825 142.371 211.065 140.911 211.445 138.881C211.825 136.851 211.205 135.041 210.055 134.821C208.905 134.601 207.665 136.081 207.285 138.101Z" fill="#263238"/>
<path d="M203.275 154.981C203.275 154.981 196.175 164.621 189.705 154.921" stroke="#263238" stroke-width="1.1133" stroke-linecap="round" stroke-linejoin="round"/>
<path d="M201.905 155.251C201.905 155.251 206.625 160.141 211.605 157.401C216.585 154.661 213.605 150.401 213.605 150.401" stroke="#263238" stroke-width="1.1133" stroke-linecap="round" stroke-linejoin="round"/>
<path d="M180.255 131.771C180.255 131.771 181.995 125.551 190.205 127.041" stroke="#263238" stroke-width="3.33991" stroke-linecap="round" stroke-linejoin="round"/>
<path d="M205.135 126.051C205.135 126.051 211.355 122.321 217.075 128.291" stroke="#263238" stroke-width="3.33991" stroke-linecap="round" stroke-linejoin="round"/>
<path d="M175.525 148.451L181.495 149.941" stroke="#263238" stroke-width="1.1133" stroke-miterlimit="10" stroke-linecap="round"/>
<path d="M180.745 152.181L175.525 153.171" stroke="#263238" stroke-width="1.1133" stroke-miterlimit="10" stroke-linecap="round"/>
<path d="M181.745 154.921L178.015 156.911" stroke="#263238" stroke-width="1.1133" stroke-miterlimit="10" stroke-linecap="round"/>
<path d="M219.565 145.711L224.795 144.461" stroke="#263238" stroke-width="1.1133" stroke-miterlimit="10" stroke-linecap="round"/>
<path d="M220.565 148.201H224.045" stroke="#263238" stroke-width="1.1133" stroke-miterlimit="10" stroke-linecap="round"/>
<path d="M221.305 150.691L226.035 151.931" stroke="#263238" stroke-width="1.1133" stroke-miterlimit="10" stroke-linecap="round"/>
</svg>
